<svg width="20" height="21" viewBox="0 0 20 21" fill="none" xmlns="http://www.w3.org/2000/svg">
<g clip-path="url(#clip0_9894_3626)">
<path d="M5.8584 0.570014C4.7944 0.620181 4.06782 0.790014 3.43257 1.03951C2.77523 1.29576 2.21798 1.63951 1.66357 2.19593C1.10923 2.75235 0.767735 3.30993 0.513401 3.96843C0.267235 4.60493 0.100401 5.33218 0.0534013 6.39676C0.00640132 7.46135 -0.00401534 7.8036 0.00123466 10.5193C0.00640132 13.2348 0.0184013 13.5752 0.0699847 14.642C0.120818 15.7058 0.289985 16.4322 0.539568 17.0676C0.796235 17.725 1.13957 18.282 1.69623 18.8366C2.25282 19.3912 2.80998 19.7318 3.46998 19.9866C4.10598 20.2324 4.8334 20.4 5.89782 20.4466C6.96223 20.4933 7.30482 20.5041 10.0197 20.4988C12.7345 20.4937 13.0763 20.4816 14.1428 20.431C15.2095 20.3804 15.932 20.21 16.5677 19.9616C17.2251 19.7044 17.7825 19.3616 18.3367 18.8048C18.8908 18.248 19.2321 17.69 19.4862 17.0312C19.7327 16.3952 19.9001 15.6678 19.9462 14.6042C19.9929 13.5368 20.0039 13.196 19.9987 10.4808C19.9935 7.7656 19.9812 7.42518 19.9307 6.35876C19.8801 5.29235 19.7107 4.56818 19.4612 3.93235C19.2042 3.27493 18.8612 2.71835 18.3049 2.16335C17.7485 1.60835 17.19 1.26735 16.5315 1.01376C15.895 0.767514 15.1681 0.599764 14.1037 0.553764C13.0392 0.507764 12.6967 0.495847 9.98082 0.501181C7.26499 0.506347 6.92498 0.518014 5.8584 0.570014ZM5.97523 18.6476C5.00023 18.6052 4.47082 18.4432 4.11798 18.3076C3.65082 18.1276 3.31798 17.91 2.9664 17.5618C2.61473 17.2136 2.39882 16.8796 2.2164 16.4134C2.0794 16.0606 1.9144 15.5318 1.86882 14.5568C1.81923 13.503 1.80882 13.1866 1.80298 10.5168C1.79715 7.84701 1.8074 7.53093 1.85357 6.47676C1.89523 5.5026 2.05823 4.9726 2.19357 4.61993C2.37357 4.15218 2.5904 3.81993 2.9394 3.4686C3.2884 3.11718 3.6214 2.90076 4.08798 2.71835C4.44049 2.58076 4.96923 2.41718 5.94382 2.37076C6.9984 2.32076 7.3144 2.31076 9.98382 2.30493C12.6532 2.2991 12.9701 2.3091 14.0251 2.3556C14.9992 2.39793 15.5295 2.55935 15.8817 2.6956C16.3491 2.8756 16.6817 3.09176 17.0331 3.44143C17.3845 3.79093 17.6011 4.12276 17.7835 4.59035C17.9212 4.94176 18.0849 5.47035 18.1309 6.4456C18.1811 7.50018 18.1925 7.81643 18.1972 10.4856C18.2021 13.1548 18.1927 13.4718 18.1464 14.5256C18.1039 15.5006 17.9422 16.0302 17.8064 16.3834C17.6264 16.8504 17.4095 17.1834 17.0602 17.5346C16.7111 17.8858 16.3785 18.1022 15.9117 18.2846C15.5597 18.422 15.0302 18.586 14.0565 18.6324C13.0018 18.682 12.6858 18.6924 10.0154 18.6983C7.34499 18.7041 7.02982 18.6933 5.97523 18.6476ZM14.1275 5.15535C14.1279 5.39271 14.1987 5.62462 14.3309 5.82174C14.4631 6.01887 14.6508 6.17237 14.8702 6.26281C15.0897 6.35326 15.331 6.37659 15.5637 6.32986C15.7965 6.28313 16.0101 6.16843 16.1776 6.00028C16.3451 5.83213 16.459 5.61807 16.5049 5.38518C16.5507 5.1523 16.5265 4.91104 16.4352 4.69193C16.344 4.47282 16.1898 4.2857 15.9921 4.15423C15.7945 4.02276 15.5623 3.95285 15.325 3.95335C15.0068 3.95401 14.7019 4.081 14.4774 4.30641C14.2528 4.53181 14.127 4.83717 14.1275 5.15535ZM4.8654 10.51C4.87098 13.346 7.17424 15.6398 10.0096 15.6344C12.8451 15.629 15.1404 13.326 15.1351 10.49C15.1297 7.65401 12.8259 5.3596 9.99007 5.36518C7.15424 5.37076 4.86007 7.67435 4.8654 10.51ZM6.66665 10.5064C6.66535 9.84717 6.85957 9.20232 7.22476 8.65343C7.58994 8.10455 8.10969 7.67628 8.71827 7.42279C9.32685 7.16929 9.99694 7.10195 10.6438 7.22929C11.2906 7.35662 11.8852 7.67291 12.3523 8.13815C12.8194 8.6034 13.1381 9.1967 13.268 9.84304C13.3979 10.4894 13.3332 11.1597 13.0821 11.7693C12.831 12.3789 12.4048 12.9003 11.8574 13.2677C11.31 13.6351 10.6659 13.8319 10.0067 13.8332C9.56889 13.8341 9.13524 13.7488 8.73046 13.5821C8.32568 13.4154 7.95771 13.1706 7.64755 12.8617C7.33739 12.5527 7.09113 12.1857 6.92282 11.7816C6.75452 11.3775 6.66747 10.9442 6.66665 10.5064Z" fill="#DDE4FF"/>
</g>
<defs>
<clipPath id="clip0_9894_3626">
<rect width="20" height="20" fill="white" transform="translate(0 0.5)"/>
</clipPath>
</defs>
</svg>
