<svg width="20" height="20" viewBox="0 0 20 20" fill="none" xmlns="http://www.w3.org/2000/svg">
<path d="M4.29289 14.7929C3.90237 15.1834 3.90237 15.8166 4.29289 16.2071C4.68342 16.5976 5.31658 16.5976 5.70711 16.2071L4.29289 14.7929ZM16.6066 4.8934C16.6066 4.34111 16.1589 3.8934 15.6066 3.8934L6.6066 3.8934C6.05432 3.8934 5.6066 4.34111 5.6066 4.8934C5.6066 5.44568 6.05432 5.8934 6.6066 5.8934L14.6066 5.8934L14.6066 13.8934C14.6066 14.4457 15.0543 14.8934 15.6066 14.8934C16.1589 14.8934 16.6066 14.4457 16.6066 13.8934L16.6066 4.8934ZM5.70711 16.2071L16.3137 5.60051L14.8995 4.18629L4.29289 14.7929L5.70711 16.2071Z" fill="url(#paint0_linear_9894_4368)"/>
<defs>
<linearGradient id="paint0_linear_9894_4368" x1="4.19235" y1="15.5135" x2="8.53257" y2="18.5237" gradientUnits="userSpaceOnUse">
<stop stop-color="#0026FF"/>
<stop offset="1" stop-color="#C1A4FF"/>
</linearGradient>
</defs>
</svg>
